<?xml version="1.0" encoding="utf-8"?>
<!-- Generator: Adobe Illustrator 28.1.0, SVG Export Plug-In . SVG Version: 6.00 Build 0)  -->
<svg version="1.1" id="Layer_1" xmlns="http://www.w3.org/2000/svg" xmlns:xlink="http://www.w3.org/1999/xlink" x="0px" y="0px"
	 viewBox="0 0 230 57" style="enable-background:new 0 0 230 57;" xml:space="preserve">
<style type="text/css">
	.st0{fill:#C0272C;}
	.st1{fill:#C1292E;}
	.st2{fill:#C0282D;}
	.st3{fill:#C12A2F;}
	.st4{fill:#C12B30;}
	.st5{fill:#848484;}
</style>
<path class="st0" d="M59.14,8.93c-0.01,0.09-0.02,0.21-0.02,0.36V9C59.12,8.98,59.12,8.95,59.14,8.93z"/>
<path class="st0" d="M59.75,8.63c-0.14,0-0.25,0-0.34,0.02c0.02-0.02,0.05-0.02,0.08-0.02H59.75z"/>
<path class="st0" d="M28.77,21.66c4.22,0,8.44,0,12.65,0c0.24,0,0.48,0,0.71,0c0.55,0.01,0.57,0.03,0.57,0.59
	c0.01,1.53,0.01,3.06,0,4.6c0,0.46-0.06,0.51-0.54,0.53c-0.24,0.01-0.48,0-0.71,0c-8.47,0-16.94,0-25.41,0
	c-0.34,0-0.68,0.02-1.02-0.02c-1.51-0.16-2.61-1.43-2.57-2.93c0.05-1.71,1.51-2.78,2.73-2.77c0.27,0,0.54,0,0.82,0
	C20.27,21.66,24.52,21.66,28.77,21.66z"/>
<path class="st0" d="M189.35,9.69c0.21,0.36-0.02,0.8,0.2,1.23c0.35-0.29,0.66-0.58,1-0.83c0.36-0.27,0.77-0.43,1.19-0.56
	c0.43-0.13,0.87-0.15,1.31-0.15c0.44,0,0.88,0.02,1.31,0.15c0.43,0.13,0.84,0.29,1.18,0.58c0.33,0.29,0.61,0.62,0.91,0.92
	c0.27-0.06,0.38-0.3,0.55-0.45c1.4-1.27,3.02-1.5,4.76-0.97c1.4,0.43,2.23,1.57,2.32,3.04c0.02,0.41,0.01,0.82,0.01,1.23
	c0,2.11,0,4.22,0,6.34c0,0.27,0,0.55-0.01,0.82c-0.01,0.23-0.12,0.38-0.37,0.39c-0.07,0-0.14,0.01-0.2,0.01c-0.85,0-1.7,0.01-2.55,0
	c-0.52-0.01-0.55-0.05-0.57-0.6c-0.01-0.24,0-0.48,0-0.72c0-1.81,0-3.61,0-5.42c0-0.41,0-0.81-0.13-1.21
	c-0.22-0.7-0.69-1.08-1.4-1.16c-0.7-0.08-1.27,0.2-1.65,0.8c-0.18,0.29-0.3,0.61-0.32,0.96c-0.02,0.37-0.04,0.75-0.04,1.12
	c0,1.67,0,3.34,0,5.01c0,0.27,0,0.55-0.01,0.82c-0.01,0.23-0.11,0.4-0.37,0.4c-0.99,0-1.97,0-2.96,0c-0.25,0-0.37-0.15-0.38-0.38
	c-0.01-0.27-0.01-0.54-0.01-0.82c0-1.74,0-3.47,0-5.21c0-0.44-0.01-0.89-0.08-1.32c-0.11-0.7-0.52-1.17-1.23-1.33
	c-0.68-0.16-1.38,0.09-1.8,0.67c-0.24,0.34-0.4,0.72-0.42,1.13c-0.02,0.31-0.03,0.61-0.03,0.92c0,1.74,0,3.47,0,5.21
	c0,0.27,0,0.54-0.02,0.82c-0.01,0.2-0.14,0.31-0.33,0.31c-1.02,0-2.04,0-3.06-0.01c-0.15,0-0.25-0.11-0.27-0.25
	c-0.02-0.2-0.03-0.41-0.03-0.61c0-3.37,0-6.74,0-10.12c0-0.17,0-0.34,0.02-0.51c0.02-0.2,0.14-0.3,0.33-0.3
	c0.85-0.01,1.7-0.01,2.55-0.01C188.95,9.61,189.16,9.58,189.35,9.69z"/>
<path class="st0" d="M31.02,35.02c-3.43,0-6.87,0-10.3,0c-0.31,0-0.61,0.01-0.92-0.02c-1.37-0.11-2.44-1.19-2.58-2.59
	c-0.13-1.28,0.76-2.59,2.02-2.96c0.39-0.12,0.8-0.16,1.21-0.16c7.14,0,14.28,0,21.42,0c0.17,0,0.34,0.01,0.51,0.01
	c0.2,0.01,0.3,0.13,0.33,0.32c0.01,0.07,0.01,0.14,0.01,0.2c0,1.57,0,3.13,0,4.7c0,0.42-0.06,0.47-0.47,0.49
	c-0.27,0.01-0.54,0.01-0.82,0.01C37.96,35.02,34.49,35.02,31.02,35.02z"/>
<path class="st0" d="M162.55,14.32c-0.32,0.12-0.31,0.31-0.35,0.46c-0.53,1.9-1.06,3.8-1.58,5.7c-0.05,0.2-0.11,0.39-0.16,0.59
	c-0.07,0.27-0.23,0.38-0.51,0.38c-0.88-0.01-1.77-0.01-2.66,0c-0.29,0-0.44-0.15-0.51-0.39c-0.29-0.91-0.58-1.82-0.86-2.73
	c-0.79-2.53-1.59-5.06-2.38-7.6c-0.1-0.32-0.19-0.64-0.27-0.9c0.08-0.25,0.24-0.22,0.36-0.22c0.92-0.01,1.84,0,2.76-0.01
	c0.5,0,0.64,0.02,0.77,0.58c0.38,1.55,0.79,3.1,1.2,4.65c0.14,0.55,0.3,1.1,0.45,1.67c0.26-0.18,0.29-0.42,0.35-0.65
	c0.49-1.81,0.96-3.62,1.47-5.42c0.25-0.87,0.07-0.82,1.09-0.82c0.68,0,1.36-0.01,2.04,0c0.45,0.01,0.52,0.05,0.64,0.49
	c0.38,1.34,0.73,2.69,1.1,4.04c0.21,0.77,0.44,1.54,0.67,2.34c0.24-0.22,0.28-0.46,0.34-0.69c0.46-1.78,0.93-3.55,1.4-5.33
	c0.04-0.16,0.07-0.33,0.12-0.5c0.07-0.21,0.19-0.35,0.44-0.35c1.02,0,2.04,0,3.02,0c0.14,0.27,0.02,0.46-0.04,0.65
	c-1.1,3.51-2.2,7.01-3.3,10.52c-0.04,0.13-0.08,0.26-0.13,0.39c-0.07,0.17-0.18,0.29-0.37,0.29c-0.95,0-1.91,0-2.86-0.01
	c-0.2,0-0.29-0.13-0.34-0.31c-0.12-0.43-0.25-0.85-0.37-1.28C163.56,18.03,163.06,16.19,162.55,14.32z"/>
<path class="st0" d="M100.8,20.53c-1.1-3.1-2.19-6.22-3.27-9.33c-0.62-1.76-1.25-3.52-1.85-5.29c-0.13-0.39-0.33-0.55-0.73-0.54
	c-1.08,0.01-2.17,0.02-3.26,0c-0.37-0.01-0.55,0.16-0.66,0.5c-0.25,0.77-0.54,1.54-0.81,2.31c-1.45,4.09-2.91,8.19-4.35,12.29
	c-0.09,0.28-0.31,0.55-0.17,0.92c1.1,0.09,2.21,0.03,3.32,0.04c0.24,0,0.38-0.13,0.45-0.35c0.08-0.26,0.16-0.52,0.25-0.77
	c0.23-0.6,0.35-1.25,0.67-1.83c0.13-0.02,0.27-0.05,0.4-0.05c1.56,0,3.13-0.01,4.69,0c0.53,0,0.56,0.03,0.73,0.52
	c0.22,0.64,0.41,1.29,0.63,1.94c0.17,0.52,0.19,0.53,0.71,0.54c0.88,0.01,1.77,0,2.65,0C101.01,21.43,101.15,21.54,100.8,20.53z
	 M94.67,15.29c-1.07,0-2.15,0.05-3.23-0.03c0.13-0.91,1.39-4.85,1.77-5.5c0.2,0.05,0.16,0.25,0.2,0.39
	c0.52,1.58,1.02,3.15,1.52,4.73C95.02,15.16,94.93,15.29,94.67,15.29z"/>
<path class="st0" d="M127.25,13.33c-0.11-1.96-1.18-3.32-2.99-3.79c-1.47-0.39-2.82-0.15-4.03,0.82c-0.19,0.15-0.32,0.47-0.66,0.35
	c-0.08-0.34,0.04-0.69-0.11-1.01c-0.47-0.07-2.89-0.13-3.25-0.08c-0.19,0.03-0.29,0.15-0.3,0.34c-0.01,0.24-0.01,0.48-0.01,0.72
	v14.6c0.01,0.25,0.16,0.37,0.39,0.38c0.68,0.01,1.36,0.01,2.04,0.01c0.34,0,0.68-0.01,1.02-0.03c0.15-0.01,0.25-0.11,0.27-0.26
	c0.02-0.2,0.02-0.41,0.02-0.61c0.01-1.16,0-2.32,0.01-3.47c0-0.23-0.09-0.48,0.1-0.67c0.17-0.06,0.25,0.08,0.35,0.16
	c0.92,0.77,1.98,1.02,3.15,0.88c2.24-0.27,4-1.84,4.02-4.35v-1.84C127.27,14.76,127.29,14.05,127.25,13.33z M123.49,17.41
	c-0.11,0.88-0.67,1.38-1.54,1.53c-0.77,0.14-1.63-0.23-2.05-0.86c-0.17-0.26-0.23-0.56-0.24-0.86c-0.02-0.51-0.01-1.02-0.01-1.53
	h0.01c0-0.55-0.02-1.09,0-1.63c0.08-1.57,1.51-2.06,2.63-1.7c0.59,0.18,0.99,0.58,1.15,1.19c0.02,0.1,0.07,0.2,0.07,0.3
	C123.58,15.04,123.63,16.23,123.49,17.41z"/>
<path class="st0" d="M113.84,13.49c0-0.21-0.01-0.41-0.04-0.61c-0.27-1.67-1.15-2.82-2.8-3.3c-1.5-0.44-2.89-0.22-4.14,0.75
	c-0.18,0.14-0.3,0.38-0.57,0.39c-0.02-0.02-0.06-0.04-0.06-0.06c-0.02-0.2-0.04-0.41-0.06-0.61c-0.03-0.36-0.08-0.43-0.42-0.44
	c-0.78-0.01-1.56,0-2.35,0c-0.88,0-0.87-0.04-0.87,0.91v14.21c0,0.17,0,0.34,0.01,0.51c0.02,0.31,0.11,0.41,0.44,0.42
	c0.92,0.01,1.84,0.01,2.76,0c0.4-0.01,0.48-0.1,0.48-0.49c0.01-1.22,0-2.45,0.01-3.68c0-0.29-0.06-0.6,0.11-1.01
	c1.06,1,2.22,1.36,3.55,1.19c2.51-0.33,3.96-2.15,3.96-4.2C113.84,16.14,113.85,14.82,113.84,13.49z M110.13,16.68
	c0,0.17,0,0.34-0.01,0.51c-0.06,1.07-0.8,1.76-1.85,1.78c-1.1,0.02-1.97-0.69-2.02-1.73c-0.05-1.05-0.06-2.11,0-3.16
	c0.09-1.63,1.52-2.07,2.62-1.73c0.76,0.24,1.19,0.79,1.24,1.58c0.04,0.57,0.01,1.15,0.01,1.73C110.12,16,110.13,16.34,110.13,16.68z
	"/>
<path class="st0" d="M40.51,13.9c-0.21,0.31-0.3,0.46-0.4,0.58c-1.23,1.54-2.48,3.07-3.69,4.62c-0.31,0.39-0.64,0.52-1.12,0.52
	c-5-0.01-9.99-0.01-14.99-0.01c-0.37,0-0.74-0.02-1.1-0.14c-1.29-0.44-2.13-1.7-1.97-2.99c0.17-1.4,1.24-2.45,2.62-2.57
	c0.2-0.02,0.41-0.01,0.61-0.01c6.39,0,12.78,0,19.17,0C39.86,13.9,40.09,13.9,40.51,13.9z"/>
<path class="st0" d="M183.55,20.95c-0.04-0.74-0.1-1.49-0.11-2.24c-0.01-1.56,0-3.13,0-4.69c0-0.27,0.01-0.55-0.01-0.82
	c-0.09-1.44-0.76-2.51-2.06-3.16c-0.37-0.18-0.76-0.31-1.15-0.42c-1.13-0.32-2.29-0.31-3.44-0.16c-0.88,0.11-1.72,0.38-2.47,0.9
	c-0.95,0.67-1.48,1.57-1.46,2.76c0,0.27,0.09,0.38,0.36,0.38c0.94,0.01,1.89,0,2.81,0c0.06-0.12,0.09-0.18,0.11-0.25
	c0.28-0.91,0.58-1.17,1.5-1.22c0.31-0.01,0.62-0.01,0.92,0.05c0.67,0.12,1.07,0.55,1.17,1.23c0.03,0.24,0.02,0.48,0.01,0.72
	c0,0.2-0.12,0.31-0.31,0.32c-0.27,0.02-0.54,0.02-0.81,0.02c-0.78-0.02-1.57,0-2.34,0.14c-1.05,0.18-2.02,0.55-2.84,1.27
	c-1.55,1.38-1.43,4.48,0.77,5.42c1.84,0.79,3.65,0.71,5.27-0.63c0.12-0.1,0.2-0.28,0.45-0.26c0.14,0.22,0.07,0.5,0.14,0.75
	c0.05,0.22,0.16,0.37,0.41,0.37h2.75C183.53,21.42,183.57,21.33,183.55,20.95z M179.66,17.65c-0.13,0.66-0.55,1.07-1.19,1.25
	c-0.54,0.15-1.08,0.17-1.6-0.05c-0.53-0.22-0.79-0.64-0.76-1.2c0.03-0.49,0.33-0.9,0.83-1.04c0.52-0.16,1.07-0.17,1.61-0.16h0.21
	C179.74,16.44,179.9,16.35,179.66,17.65z"/>
<path class="st0" d="M139.74,17.34c0-1.36,0.02-2.73-0.01-4.09c-0.02-1.41-0.68-2.46-1.92-3.15c-0.42-0.23-0.87-0.38-1.33-0.5
	c-1.11-0.29-2.23-0.29-3.35-0.15c-0.91,0.12-1.79,0.41-2.56,0.95c-0.93,0.66-1.39,1.56-1.42,2.69c-0.01,0.28,0.08,0.4,0.33,0.41
	c0.95,0.01,1.9,0,2.86,0c0.05-0.17,0.11-0.29,0.13-0.42c0.14-0.62,0.57-0.91,1.15-1.01c0.44-0.08,0.89-0.08,1.32,0.02
	c0.54,0.13,0.93,0.45,1.04,1c0.07,0.33,0.04,0.68,0.04,1.02c0,0.16-0.14,0.23-0.28,0.24c-0.23,0.02-0.47,0.02-0.71,0.02
	c-0.82-0.01-1.63,0-2.44,0.14c-1.06,0.18-2.04,0.53-2.85,1.28c-1.65,1.55-1.29,4.35,0.69,5.39c1.47,0.77,3.99,0.68,5.29-0.55
	c0.15-0.13,0.25-0.34,0.53-0.32c0.04,0.25,0.09,0.52,0.14,0.78c0.05,0.23,0.18,0.34,0.43,0.34c0.92-0.01,1.83,0,2.75-0.01
	c0.1,0,0.19-0.06,0.35-0.11C139.7,19.99,139.74,18.67,139.74,17.34z M136.02,17.41c-0.08,0.83-0.59,1.37-1.39,1.54
	c-0.47,0.1-0.95,0.1-1.41-0.08c-0.52-0.21-0.82-0.64-0.8-1.17c0.01-0.53,0.34-0.96,0.88-1.11c0.5-0.13,1.01-0.15,1.52-0.14h0.4
	C136.1,16.43,136.11,16.52,136.02,17.41z"/>
<path class="st0" d="M217.48,9.61c0.12,0.33,0,0.51-0.07,0.7c-1.45,4.1-2.9,8.21-4.35,12.31c-0.05,0.13-0.1,0.25-0.15,0.38
	c-0.65,1.59-1.85,2.47-3.54,2.72c-0.75,0.11-1.65,0.03-2.58-0.22c-0.04-0.89-0.06-1.79,0.02-2.68c0.37-0.13,0.66,0.01,0.96,0.03
	c1.09,0.08,1.54-0.24,1.9-1.28c0.12-0.34,0.01-0.6-0.09-0.88c-0.7-1.91-1.42-3.83-2.13-5.74c-0.54-1.47-1.09-2.93-1.63-4.4
	c-0.1-0.28-0.28-0.55-0.2-0.93c1.15,0,2.3,0,3.46,0c0.35,0,0.45,0.22,0.54,0.5c0.54,1.72,1.09,3.44,1.63,5.15
	c0.13,0.42,0.27,0.84,0.41,1.26c0.03,0.08,0.04,0.21,0.19,0.17c0.11-0.03,0.15-0.12,0.18-0.22c0.61-1.95,1.22-3.89,1.83-5.84
	c0.37-1.19,0.15-1.02,1.35-1.03C215.96,9.6,216.71,9.61,217.48,9.61z"/>
<path class="st0" d="M151.79,10.96c-0.46,0.44-0.9,0.87-1.34,1.29c-0.22,0.21-0.43,0.49-0.69,0.58c-0.3,0.1-0.52-0.24-0.79-0.38
	c-0.68-0.35-1.39-0.55-2.16-0.51c-0.3,0.01-0.61,0.09-0.89,0.21c-0.3,0.12-0.48,0.37-0.47,0.72c0.01,0.32,0.22,0.5,0.48,0.59
	c0.29,0.1,0.58,0.18,0.88,0.24c0.73,0.16,1.47,0.29,2.19,0.45c0.53,0.12,1.05,0.28,1.54,0.53c1.97,0.99,2.27,3.19,1.29,4.79
	c-0.37,0.59-0.88,1.03-1.48,1.37c-0.75,0.43-1.56,0.69-2.41,0.78c-1.4,0.15-2.78,0.08-4.13-0.35c-0.79-0.25-1.5-0.64-2.12-1.19
	c-0.16-0.14-0.16-0.3-0.03-0.45c0.51-0.59,1.02-1.18,1.54-1.77c0.09-0.11,0.24-0.12,0.37-0.03c0.2,0.14,0.38,0.28,0.58,0.41
	c0.91,0.59,1.91,0.87,3,0.79c0.35-0.03,0.68-0.1,0.97-0.27c0.57-0.32,0.56-1.09,0-1.42c-0.33-0.19-0.7-0.24-1.07-0.33
	c-0.69-0.16-1.4-0.29-2.09-0.47c-0.43-0.11-0.85-0.25-1.25-0.44c-1.57-0.74-1.98-2.07-1.67-3.55c0.18-0.86,0.65-1.56,1.34-2.11
	c0.71-0.56,1.53-0.91,2.42-1.01c1.19-0.14,2.38-0.14,3.54,0.17C150.27,9.84,151.09,10.22,151.79,10.96z"/>
<path class="st1" d="M92.71,39.93c-0.14-0.23-0.29-0.46-0.44-0.69c-0.56-0.84-1.13-1.68-1.69-2.51c0.13-0.23,0.34-0.27,0.52-0.37
	c1.03-0.57,1.55-1.59,1.39-2.71c-0.17-1.2-0.85-1.94-2.07-2.23c-0.3-0.07-0.61-0.1-0.91-0.11c-0.85-0.01-1.7-0.01-2.55,0
	c-0.13,0-0.27,0-0.4,0.02c-0.15,0.02-0.24,0.12-0.26,0.27c-0.02,0.17-0.03,0.34-0.03,0.51v7.34c0,0.17,0,0.34,0.04,0.51
	c0.02,0.08,0.1,0.19,0.17,0.22c0.26,0.09,0.54,0.07,0.81,0.02c0.07-0.02,0.17-0.13,0.18-0.21c0.04-0.24,0.04-0.48,0.05-0.71
	c0-0.72,0-1.43,0.01-2.14c0-0.24,0.11-0.38,0.36-0.4c1.16-0.13,1.27-0.08,1.92,0.88c0.15,0.22,0.31,0.45,0.46,0.67
	c0.32,0.48,0.67,0.94,0.96,1.44c0.24,0.42,0.57,0.55,1.01,0.5c0.1-0.01,0.21,0,0.31-0.01C92.7,40.21,92.78,40.06,92.71,39.93z
	 M90.22,35.55c-0.79,0.21-1.6,0.18-2.41,0.12c-0.2-0.01-0.28-0.17-0.29-0.36v-1.32h0.01c0-0.43,0-0.88,0.01-1.31
	c0.01-0.19,0.14-0.32,0.33-0.32c0.71,0.01,1.42-0.09,2.12,0.08c1.09,0.26,1.58,1.22,1.17,2.25C90.98,35.14,90.67,35.43,90.22,35.55z
	"/>
<path class="st2" d="M157.99,39.4c-0.2,0.19-0.41,0.38-0.65,0.5c-1.45,0.68-2.89,0.65-4.27-0.22c-0.17-0.1-0.34-0.24-0.46-0.4
	c-0.22-0.3-0.4-0.53-0.48-0.72l1.09-0.55c0.08,0.1,0.13,0.22,0.2,0.32c0.82,1.13,2.53,1.11,3.33,0.63c0.72-0.43,0.91-1.3,0.43-1.93
	c-0.19-0.25-0.45-0.41-0.75-0.51c-0.35-0.12-0.71-0.22-1.07-0.32c-0.46-0.14-0.92-0.25-1.37-0.42c-0.92-0.33-1.45-0.99-1.48-1.98
	c-0.04-0.97,0.33-1.76,1.2-2.2c1.32-0.67,2.63-0.59,3.89,0.17c0.15,0.09,0.27,0.21,0.39,0.33c0.19,0.2,0.31,0.37,0.36,0.51
	l-0.47,0.23l-0.58,0.29c-0.02-0.02-0.03-0.04-0.05-0.06c-0.58-0.78-1.39-0.91-2.28-0.8c-0.24,0.03-0.47,0.11-0.67,0.24
	c-0.75,0.49-0.79,1.44-0.08,1.98c0.28,0.21,0.6,0.31,0.93,0.41c0.45,0.14,0.91,0.26,1.37,0.39c0.2,0.05,0.4,0.1,0.59,0.17
	C159.05,36.13,158.95,38.48,157.99,39.4z"/>
<path class="st2" d="M214.51,39.4c-0.2,0.19-0.41,0.38-0.65,0.5c-1.45,0.68-2.89,0.65-4.27-0.22c-0.17-0.1-0.34-0.24-0.46-0.4
	c-0.22-0.3-0.4-0.53-0.48-0.72l1.09-0.55c0.08,0.1,0.13,0.22,0.2,0.32c0.82,1.13,2.53,1.11,3.33,0.63c0.72-0.43,0.91-1.3,0.43-1.93
	c-0.19-0.25-0.45-0.41-0.75-0.51c-0.35-0.12-0.71-0.22-1.07-0.32c-0.46-0.14-0.92-0.25-1.37-0.42c-0.92-0.33-1.45-0.99-1.48-1.98
	c-0.04-0.97,0.33-1.76,1.2-2.2c1.32-0.67,2.63-0.59,3.89,0.17c0.15,0.09,0.27,0.21,0.39,0.33c0.19,0.2,0.31,0.37,0.36,0.51
	l-0.47,0.23l-0.58,0.29c-0.02-0.02-0.03-0.04-0.05-0.06c-0.58-0.78-1.39-0.91-2.28-0.8c-0.24,0.03-0.47,0.11-0.67,0.24
	c-0.75,0.49-0.79,1.44-0.08,1.98c0.28,0.21,0.6,0.31,0.93,0.41c0.45,0.14,0.91,0.26,1.37,0.39c0.2,0.05,0.4,0.1,0.59,0.17
	C215.57,36.13,215.47,38.48,214.51,39.4z"/>
<path class="st2" d="M67.21,21.6c0.61,0,1.22-0.01,1.83,0c0.34,0.01,0.42,0.09,0.42,0.43c0.01,0.92,0.01,1.83,0.01,2.75
	c0,0.31,0.01,0.61,0,0.92c-0.01,0.43-0.06,0.49-0.45,0.5c-1.25,0.01-2.51,0.01-3.76,0c-0.33,0-0.43-0.1-0.44-0.42
	c-0.01-0.64-0.01-1.29-0.01-1.93c0-0.54-0.01-1.09,0-1.63c0.01-0.53,0.07-0.6,0.57-0.61C65.99,21.59,66.6,21.6,67.21,21.6
	C67.21,21.6,67.21,21.6,67.21,21.6z"/>
<path class="st2" d="M59.11,23.82c0-0.61,0-1.23,0-1.84c0-0.24,0.15-0.38,0.38-0.38c1.29-0.01,2.59,0,3.88,0
	c0.24,0,0.37,0.13,0.37,0.38c0,1.29,0,2.59-0.01,3.88c0,0.27-0.2,0.32-0.42,0.33c-0.85,0-1.7,0-2.55,0c-0.41,0-0.82,0.01-1.22-0.01
	c-0.33-0.01-0.43-0.1-0.44-0.42C59.1,25.12,59.11,24.47,59.11,23.82C59.11,23.82,59.11,23.82,59.11,23.82z"/>
<path class="st2" d="M67.2,15.9c0.61,0,1.22-0.01,1.83,0c0.35,0.01,0.43,0.08,0.44,0.41c0.01,0.68,0.01,1.36,0.01,2.04
	c0,0.58,0,1.15,0,1.73c0,0.23-0.08,0.41-0.34,0.41c-1.32,0-2.64,0.01-3.97,0c-0.24,0-0.35-0.17-0.35-0.41c0-1.26-0.01-2.51,0-3.77
	c0-0.31,0.11-0.41,0.45-0.41C65.91,15.89,66.55,15.9,67.2,15.9z"/>
<path class="st0" d="M63.79,18.1c0,0.65,0.01,1.29,0,1.94c-0.01,0.36-0.08,0.45-0.39,0.45c-1.26,0.01-2.51,0.01-3.77,0
	c-0.34,0-0.43-0.09-0.44-0.41c-0.01-0.58-0.01-1.16-0.01-1.73c0-0.65-0.01-1.29,0.01-1.94c0.01-0.42,0.07-0.5,0.45-0.5
	c1.26-0.01,2.51,0,3.77,0c0.24,0,0.38,0.11,0.38,0.36C63.78,16.88,63.78,17.49,63.79,18.1C63.78,18.1,63.79,18.1,63.79,18.1z"/>
<path class="st3" d="M166.26,32.49v0.22c0-0.04,0-0.07-0.01-0.11v-0.11H166.26z"/>
<path class="st4" d="M123.83,35.27c0,1.09-0.01,2.18,0,3.27c0,0.48,0.07,0.55,0.51,0.55c0.88,0.01,1.77,0,2.65,0
	c0.24,0,0.48,0,0.71,0c0.55,0.01,0.63,0.1,0.61,0.67c-0.02,0.37-0.09,0.46-0.5,0.46c-1.57,0.01-3.13,0.01-4.7,0
	c-0.46,0-0.53-0.07-0.53-0.54c-0.01-2.59-0.01-5.18,0-7.76c0-0.58,0.06-0.62,0.65-0.62c0.1,0,0.2,0.01,0.3,0.02
	c0.16,0.01,0.24,0.12,0.25,0.27c0.02,0.34,0.02,0.68,0.02,1.02C123.83,33.49,123.83,34.38,123.83,35.27
	C123.83,35.27,123.83,35.27,123.83,35.27z"/>
<g>
	<path class="st5" d="M144.61,47.78c0.03,0.11,0.06,0.27,0.09,0.49c0.04,0.33,0.06,0.58,0.06,0.77c0,0.06-0.01,0.12-0.02,0.19
		l-0.05,0.01l-0.34-0.02l-0.06-0.01c-0.14-0.42-0.28-0.71-0.42-0.86c-0.24-0.25-0.53-0.38-0.86-0.38c-0.31,0-0.56,0.08-0.74,0.25
		c-0.18,0.16-0.28,0.37-0.28,0.61c0,0.2,0.09,0.4,0.27,0.59c0.18,0.19,0.56,0.37,1.14,0.54c0.19,0.06,0.43,0.15,0.71,0.28
		c0.28,0.13,0.49,0.27,0.63,0.42c0.19,0.2,0.32,0.39,0.39,0.57c0.07,0.18,0.11,0.41,0.11,0.69c0,0.3-0.06,0.59-0.17,0.89
		c-0.06,0.15-0.16,0.3-0.29,0.44c-0.1,0.1-0.24,0.21-0.45,0.34c-0.2,0.13-0.41,0.22-0.62,0.28c-0.21,0.06-0.49,0.09-0.83,0.09
		c-0.22,0-0.49-0.03-0.8-0.1l-0.57-0.17c-0.16-0.04-0.26-0.08-0.3-0.12c-0.02-0.01-0.03-0.04-0.04-0.09v-0.05
		c0-0.04-0.01-0.25-0.02-0.66c-0.01-0.21-0.01-0.35-0.01-0.44v-0.18l0.44-0.01c0.15,0.36,0.25,0.57,0.3,0.64
		c0.1,0.16,0.21,0.3,0.33,0.4s0.26,0.18,0.43,0.24s0.35,0.09,0.54,0.09c0.17,0,0.36-0.04,0.57-0.11s0.37-0.19,0.5-0.36
		c0.13-0.17,0.19-0.35,0.19-0.54c0-0.24-0.11-0.46-0.33-0.66c-0.13-0.12-0.5-0.29-1.08-0.5c-0.59-0.21-0.99-0.39-1.22-0.56
		s-0.41-0.38-0.54-0.65c-0.13-0.27-0.2-0.54-0.2-0.79c0-0.51,0.18-0.94,0.55-1.29c0.36-0.35,0.9-0.53,1.61-0.53
		c0.15,0,0.38,0.03,0.68,0.08C144.07,47.61,144.31,47.68,144.61,47.78z"/>
	<path class="st5" d="M148.65,53.84V53.5c0.06-0.02,0.17-0.05,0.31-0.08c0.21-0.05,0.36-0.1,0.46-0.16c0.06-0.1,0.09-0.24,0.09-0.41
		l0-0.56l0.01-1.09l0-0.26c0.03-0.63,0.04-0.96,0.04-0.98l-0.01-0.64l0.01-0.26l-0.02-0.54l-0.01-0.21c0-0.03-0.01-0.08-0.03-0.15
		c-0.13-0.06-0.34-0.1-0.64-0.12c-0.07,0-0.13-0.01-0.17-0.01l-0.01-0.42l1.37,0.06c0.17,0.01,0.27,0.01,0.32,0.01
		c0.19,0,0.49-0.01,0.91-0.04c0.23-0.02,0.38-0.03,0.44-0.03c0,0.06,0.01,0.11,0.01,0.15c0,0.05,0,0.12-0.01,0.21
		c-0.13,0.04-0.27,0.09-0.44,0.13s-0.3,0.08-0.4,0.12c-0.02,0.08-0.03,0.2-0.03,0.36c0,0.14,0,0.25,0.01,0.34
		c-0.01,0.54-0.01,0.95-0.01,1.24l0,1.26l-0.02,0.64l0.02,0.96l-0.01,0.18c0,0.03,0.01,0.06,0.03,0.11
		c0.19,0.04,0.37,0.07,0.53,0.09c0.03,0,0.12,0.02,0.29,0.04c0.01,0.1,0.02,0.18,0.02,0.24c0,0.04,0,0.09,0,0.16
		c-0.04,0-0.07,0-0.1,0c-0.1,0.01-0.16,0.01-0.18,0.01c-0.02,0-0.06,0-0.12-0.01c-0.04-0.01-0.26-0.03-0.64-0.07l-0.85-0.01
		c-0.17,0-0.42,0.02-0.74,0.05C148.85,53.83,148.71,53.84,148.65,53.84z"/>
	<path class="st5" d="M154.88,48.02l-0.02-0.33h0.41l0.14,0c0.19-0.01,0.32-0.01,0.4-0.01c0.04,0,0.15,0,0.33,0.01
		c0.04,0,0.08,0,0.11,0s0.13,0,0.3-0.01c0.17-0.01,0.27-0.01,0.29-0.01c0.04,0,0.08,0,0.15,0c0.49,0.45,0.89,0.83,1.2,1.15
		c0.31,0.32,1.44,1.45,3.39,3.38v-0.12l-0.02-0.56c-0.01-0.33-0.02-0.58-0.04-0.77c-0.02-0.19-0.03-0.42-0.03-0.68
		c0-0.26-0.01-0.5-0.03-0.72c-0.04-0.42-0.06-0.66-0.06-0.72c0-0.21-0.03-0.33-0.07-0.38c-0.07-0.07-0.22-0.12-0.46-0.16
		c-0.18-0.03-0.31-0.07-0.39-0.11l0-0.28l0.12-0.01l0.94-0.03l1.05-0.03c0.07,0,0.14,0,0.2,0l0,0.31c-0.07,0.04-0.15,0.07-0.23,0.09
		c-0.2,0.05-0.32,0.08-0.35,0.1c-0.16,0.09-0.25,0.15-0.26,0.17c-0.03,0.04-0.04,0.1-0.04,0.18c0,0.02,0,0.09,0.01,0.2
		c0,0.06,0,0.19,0,0.4c0,0.46,0.02,0.83,0.04,1.1c0.01,0.09,0.01,0.18,0.01,0.29l0.05,1.68c0,0.12,0,0.2,0,0.25v0.59l0.01,0.25
		l-0.01,0.26c0.01,0.13,0.02,0.21,0.02,0.23v0.25L161.52,54l-0.57-0.59l-1.16-1.15l-0.81-0.81l-0.6-0.61
		c-0.39-0.38-0.74-0.72-1.06-1.01l-0.78-0.7l0.04,1.78c0,0.11,0,0.22,0,0.33l0,0.34l0.03,0.63c0.01,0.26,0.03,0.55,0.05,0.85
		c0.01,0.08,0.01,0.14,0.02,0.17c0.01,0.03,0.03,0.08,0.06,0.15c0.12,0.04,0.4,0.08,0.81,0.1c0.03,0.01,0.07,0.02,0.12,0.03
		l0.02,0.39l-0.19,0c-0.1,0-0.42-0.02-0.97-0.07c-0.51,0.01-0.85,0.02-1.01,0.03c-0.17,0.01-0.26,0.02-0.28,0.02
		c-0.04,0-0.09-0.01-0.16-0.02c-0.01-0.07-0.01-0.14-0.01-0.19c0-0.04,0-0.09,0-0.17c0.09-0.02,0.16-0.02,0.22-0.02
		c0.02,0,0.08,0,0.19,0.01c0.27,0,0.43-0.02,0.48-0.06s0.08-0.15,0.08-0.32c0.02-0.51,0.03-0.82,0.03-0.93V51.9l0.01-1.56
		l-0.01-0.97c0-0.37-0.03-0.63-0.07-0.77c-0.02-0.07-0.06-0.14-0.11-0.19c-0.11-0.12-0.24-0.2-0.37-0.26
		C155.44,48.12,155.23,48.08,154.88,48.02z"/>
	<path class="st5" d="M171.67,47.74c0.04,0.1,0.13,0.37,0.25,0.82c0.06,0.2,0.09,0.42,0.09,0.65h-0.44
		c-0.31-0.43-0.62-0.75-0.95-0.94c-0.33-0.19-0.69-0.29-1.09-0.29c-0.49,0-0.89,0.19-1.2,0.58c-0.41,0.52-0.62,1.25-0.62,2.19
		c0,0.54,0.04,0.93,0.11,1.16c0.12,0.37,0.26,0.68,0.44,0.91c0.13,0.18,0.31,0.32,0.53,0.43c0.28,0.14,0.58,0.21,0.9,0.21
		c0.35,0,0.69-0.11,1.02-0.33s0.64-0.54,0.94-0.98c0.12-0.02,0.27-0.04,0.46-0.04c-0.01,0.12-0.03,0.25-0.06,0.38
		c-0.01,0.05-0.05,0.25-0.11,0.61l-0.04,0.14l-0.07,0.22c-0.19,0.15-0.47,0.26-0.82,0.34c-0.35,0.07-0.79,0.11-1.3,0.11
		c-0.39,0-0.76-0.04-1.11-0.11s-0.65-0.19-0.9-0.35c-0.36-0.23-0.65-0.48-0.86-0.75c-0.21-0.27-0.36-0.56-0.46-0.88
		c-0.1-0.32-0.15-0.67-0.15-1.06c0-0.95,0.31-1.74,0.94-2.36s1.43-0.93,2.4-0.93c0.4,0,0.77,0.02,1.12,0.06
		S171.36,47.67,171.67,47.74z"/>
	<path class="st5" d="M175.31,47.64c0.18,0.01,0.34,0.02,0.47,0.04c0.25,0.04,0.54,0.05,0.88,0.05c0.12,0,0.41-0.01,0.89-0.03
		c0.71-0.03,1.35-0.04,1.93-0.04l0.87-0.01c0.19,0,0.48,0.02,0.86,0.07c0.06,0.06,0.09,0.15,0.09,0.26v0.99l0.01,0.2
		c0,0.02,0,0.05,0,0.09l-0.2,0.01c-0.03,0-0.08,0-0.16-0.01c-0.03-0.06-0.07-0.16-0.12-0.28l-0.19-0.34
		c-0.07-0.14-0.18-0.29-0.31-0.44c-0.08-0.02-0.18-0.04-0.31-0.04c-0.03,0-0.13-0.01-0.29-0.02c-0.3-0.03-0.62-0.04-0.96-0.04
		c-0.39,0-0.74,0.01-1.04,0.02c-0.01,0.08-0.01,0.39-0.01,0.94l0,0.8v0.6c0.08,0.01,0.15,0.01,0.21,0.01c0.57,0,0.98-0.01,1.22-0.03
		s0.39-0.05,0.45-0.09c0.06-0.04,0.11-0.11,0.15-0.21c0.03-0.07,0.08-0.3,0.17-0.7l0.06,0l0.28,0c0.01,0.28,0.02,0.5,0.02,0.65
		c0,0.33,0,0.55-0.01,0.65s-0.01,0.17-0.01,0.23c0,0.09,0,0.22,0.01,0.41c0.01,0.19,0.01,0.33,0.01,0.42v0.1h-0.34
		c-0.01-0.05-0.04-0.16-0.07-0.32c-0.06-0.3-0.12-0.48-0.17-0.56c-0.04-0.06-0.1-0.1-0.19-0.13c-0.06-0.02-0.3-0.03-0.71-0.03
		c-0.48,0-0.85,0.01-1.09,0.04c0,0.08,0,0.14,0,0.16c0,0.38,0.01,0.7,0.02,0.95l-0.01,1.03c0,0.12,0.04,0.2,0.13,0.25
		c0.13,0.07,0.53,0.1,1.2,0.1c0.44,0,0.82-0.03,1.13-0.1c0.21-0.05,0.4-0.16,0.57-0.32c0.22-0.21,0.4-0.51,0.54-0.9
		c0.1-0.01,0.18-0.01,0.24-0.01c0.03,0,0.09,0,0.16,0c-0.01,0.08-0.02,0.15-0.02,0.2l-0.03,0.14l-0.17,0.9l-0.08,0.55
		c-0.21,0.01-0.37,0.01-0.49,0.01c-0.18,0-0.66-0.02-1.43-0.05c-0.55-0.02-1.21-0.03-1.97-0.03c-0.38,0-0.85,0.02-1.41,0.05h-0.2
		l-0.58,0.02v-0.33c0.06-0.02,0.18-0.03,0.36-0.05c0.33-0.04,0.56-0.09,0.69-0.15c0.04-0.09,0.05-0.21,0.05-0.35
		c0-0.05,0-0.15,0-0.28l0-0.15l-0.01-1.8l0-0.54l-0.02-0.77l0-0.54l-0.04-0.59c0-0.02,0-0.05-0.01-0.1
		c-0.03-0.04-0.08-0.06-0.14-0.07c-0.04-0.01-0.08-0.02-0.14-0.03c-0.18-0.04-0.36-0.06-0.53-0.07c-0.06,0-0.13-0.01-0.21-0.02
		L175.31,47.64z"/>
	<path class="st5" d="M191.85,47.56c0.02,0,0.12,0,0.33-0.01l0.15,0l0.3,0c0.01,0.1,0.02,0.18,0.02,0.23c0,0.02,0,0.07,0,0.15
		c0,0.04-0.01,0.21-0.01,0.51l-0.01,0.72l0,0.46l-0.03,3.23v0.27c0,0.1,0.02,0.17,0.07,0.21s0.16,0.08,0.36,0.11
		c0.08,0.01,0.23,0.04,0.46,0.08c0.01,0.03,0.01,0.06,0.01,0.09c0,0.04,0,0.11-0.01,0.23h-0.21c-0.14,0-0.34-0.01-0.61-0.02
		c-0.16-0.01-0.27-0.01-0.33-0.01c-0.08,0-0.36,0.01-0.85,0.02c-0.05,0-0.1,0-0.13,0h-0.09l-0.14-0.01l-0.13,0.01l-0.24-0.01
		c-0.03,0-0.1,0-0.2,0.01c-0.01-0.07-0.01-0.12-0.01-0.16c0-0.04,0-0.09,0.01-0.16c0.13-0.04,0.28-0.07,0.45-0.11
		c0.23-0.05,0.38-0.09,0.43-0.14c0.05-0.05,0.08-0.11,0.08-0.18l0-0.33l0.02-0.35l0-0.73l0-0.19c0-0.03,0-0.12,0.01-0.29
		c0.01-0.09,0.01-0.16,0.01-0.23c0-0.04,0-0.17-0.01-0.39l0.02-0.27c-0.01-0.21-0.02-0.33-0.02-0.37c0-0.05,0-0.1,0-0.14l0.01-0.12
		l-0.01-0.33l0.01-0.15c0-0.07,0-0.16,0-0.27c0-0.11,0-0.24,0-0.4c-0.23,0.17-0.49,0.34-0.78,0.51c-0.03,0.02-0.18,0.08-0.43,0.2
		c-0.1-0.15-0.17-0.27-0.2-0.34c0.34-0.18,0.57-0.3,0.69-0.39c0.2-0.14,0.42-0.32,0.65-0.53C191.57,47.9,191.69,47.75,191.85,47.56z
		"/>
	<path class="st5" d="M197.31,54.01c-0.05-0.06-0.08-0.12-0.08-0.18c0-0.05,0.02-0.1,0.05-0.13c0.02-0.02,0.11-0.07,0.28-0.13
		c0.33-0.13,0.62-0.28,0.86-0.46c0.24-0.18,0.44-0.4,0.6-0.66s0.28-0.54,0.35-0.83c0.07-0.3,0.11-0.53,0.11-0.71
		c0-0.06,0.02-0.2,0.04-0.42c0.02-0.16,0.03-0.36,0.03-0.59c0-0.81-0.1-1.37-0.3-1.68c-0.15-0.23-0.34-0.34-0.56-0.34
		c-0.21,0-0.38,0.1-0.52,0.29c-0.2,0.27-0.29,0.64-0.29,1.13c0,0.3,0.02,0.59,0.06,0.85c0.03,0.18,0.08,0.34,0.17,0.48
		c0.06,0.1,0.11,0.16,0.16,0.19c0.12,0.06,0.25,0.09,0.38,0.09c0.08,0,0.16-0.01,0.25-0.04l0.07-0.01c0.04,0,0.07,0.02,0.11,0.06
		c0.03,0.04,0.05,0.09,0.05,0.16c0,0.12-0.05,0.2-0.14,0.23c-0.21,0.08-0.43,0.12-0.67,0.12c-0.15,0-0.25-0.01-0.28-0.02
		c-0.3-0.11-0.49-0.19-0.56-0.24c-0.18-0.13-0.33-0.27-0.42-0.41s-0.17-0.3-0.22-0.48c-0.06-0.24-0.09-0.47-0.09-0.71
		c0-0.38,0.08-0.73,0.26-1.06s0.41-0.57,0.7-0.73c0.3-0.16,0.62-0.24,0.96-0.24c0.61,0,1.11,0.23,1.51,0.69s0.61,1.13,0.61,2.01
		c0,0.43-0.08,0.89-0.25,1.38c-0.04,0.12-0.16,0.35-0.35,0.68c-0.19,0.33-0.45,0.64-0.78,0.91c-0.33,0.27-0.67,0.47-1.03,0.6
		c-0.36,0.13-0.66,0.19-0.88,0.19C197.46,54.02,197.39,54.01,197.31,54.01z"/>
	<path class="st5" d="M207.28,47.59l0.18,0c0.02,0,0.08,0,0.17,0c-0.13,0.64-0.23,1.01-0.29,1.12c-0.04,0.06-0.08,0.1-0.12,0.11
		c-0.38,0.02-0.58,0.02-0.61,0.02h-0.13l-0.31,0.01c-0.05,0-0.13,0-0.23-0.01c-0.27-0.01-0.46-0.02-0.58-0.02c-0.04,0-0.09,0-0.16,0
		c-0.01,0.09-0.02,0.15-0.02,0.19l-0.02,0.62l-0.02,0.45c0.14-0.07,0.28-0.12,0.43-0.15c0.15-0.03,0.31-0.05,0.47-0.05
		c0.24,0,0.47,0.05,0.7,0.14c0.23,0.09,0.43,0.22,0.6,0.39c0.13,0.13,0.25,0.3,0.37,0.51c0.09,0.15,0.13,0.27,0.14,0.34
		c0.04,0.28,0.06,0.43,0.06,0.45c0,0.25-0.03,0.47-0.08,0.67c-0.05,0.2-0.17,0.43-0.35,0.68c-0.18,0.25-0.34,0.42-0.48,0.52
		c-0.22,0.15-0.45,0.25-0.71,0.31c-0.25,0.06-0.56,0.09-0.93,0.09c-0.43,0-0.79-0.1-1.08-0.31c-0.17-0.12-0.26-0.28-0.26-0.47
		c0-0.14,0.05-0.26,0.15-0.35s0.22-0.15,0.37-0.15c0.23,0,0.46,0.15,0.69,0.44c0.14,0.18,0.24,0.28,0.31,0.32
		c0.11,0.06,0.23,0.09,0.37,0.09c0.18,0,0.36-0.06,0.53-0.17c0.17-0.11,0.32-0.28,0.43-0.5s0.17-0.43,0.17-0.63
		c0-0.33-0.11-0.62-0.34-0.86c-0.23-0.24-0.5-0.36-0.82-0.36c-0.16,0-0.31,0.02-0.43,0.06c-0.06,0.02-0.17,0.08-0.34,0.2l-0.21,0.13
		c-0.04,0.02-0.07,0.02-0.11,0.02c-0.05,0-0.09-0.01-0.12-0.04c-0.02-0.02-0.03-0.05-0.03-0.09l0.06-1.52c0-0.07,0-0.13,0.01-0.18
		c0.01-0.05,0.01-0.18,0.02-0.4s0.01-0.37,0.02-0.46c0.01-0.14,0.02-0.25,0.02-0.34c0-0.06,0-0.13,0.01-0.19c0-0.04,0-0.07,0-0.09
		l0-0.18c0-0.07,0.05-0.13,0.15-0.16c0.05-0.02,0.31-0.02,0.77-0.02l1.1,0.01c0.18,0,0.29-0.01,0.34-0.04
		C207.2,47.72,207.24,47.67,207.28,47.59z"/>
	<path class="st5" d="M211.88,54.01c-0.05-0.06-0.08-0.12-0.08-0.18c0-0.05,0.02-0.1,0.05-0.13c0.02-0.02,0.11-0.07,0.28-0.13
		c0.33-0.13,0.62-0.28,0.86-0.46c0.24-0.18,0.44-0.4,0.6-0.66s0.28-0.54,0.35-0.83c0.07-0.3,0.11-0.53,0.11-0.71
		c0-0.06,0.02-0.2,0.04-0.42c0.02-0.16,0.03-0.36,0.03-0.59c0-0.81-0.1-1.37-0.3-1.68c-0.15-0.23-0.34-0.34-0.56-0.34
		c-0.21,0-0.38,0.1-0.52,0.29c-0.2,0.27-0.29,0.64-0.29,1.13c0,0.3,0.02,0.59,0.06,0.85c0.03,0.18,0.08,0.34,0.17,0.48
		c0.06,0.1,0.11,0.16,0.16,0.19c0.12,0.06,0.25,0.09,0.38,0.09c0.08,0,0.16-0.01,0.25-0.04l0.07-0.01c0.04,0,0.07,0.02,0.11,0.06
		c0.03,0.04,0.05,0.09,0.05,0.16c0,0.12-0.05,0.2-0.14,0.23c-0.21,0.08-0.43,0.12-0.67,0.12c-0.15,0-0.25-0.01-0.28-0.02
		c-0.3-0.11-0.49-0.19-0.56-0.24c-0.18-0.13-0.33-0.27-0.42-0.41s-0.17-0.3-0.22-0.48c-0.06-0.24-0.09-0.47-0.09-0.71
		c0-0.38,0.08-0.73,0.26-1.06s0.41-0.57,0.7-0.73c0.3-0.16,0.62-0.24,0.96-0.24c0.61,0,1.11,0.23,1.51,0.69s0.61,1.13,0.61,2.01
		c0,0.43-0.08,0.89-0.25,1.38c-0.04,0.12-0.16,0.35-0.35,0.68c-0.19,0.33-0.45,0.64-0.78,0.91c-0.33,0.27-0.67,0.47-1.03,0.6
		c-0.36,0.13-0.66,0.19-0.88,0.19C212.02,54.02,211.96,54.01,211.88,54.01z"/>
</g>
<path class="st0" d="M76.63,9.48v26.06c0,0.68-0.03,1.36-0.22,2.02c-0.5,1.7-1.55,2.93-3.12,3.72c-0.83,0.42-1.71,0.68-2.62,0.81
	c-0.84,0.12-1.69,0.19-2.54,0.19c-7.08-0.01-14.16,0-21.24,0H25.24c-0.44,0-0.88,0-1.31-0.12c-1.29-0.36-2.14-1.55-2.03-2.83
	c0.11-1.29,1.15-2.36,2.44-2.51c0.23-0.03,0.47-0.02,0.71-0.02H41.8c0.26,0,0.56-0.09,0.79,0.09c0.24,0.19,0.1,0.51,0.13,0.77
	c0.02,0.24,0.13,0.38,0.37,0.38h2.96c0.32-0.01,0.4-0.1,0.41-0.45c0.02-0.3,0.01-0.61,0.01-0.92v-13.9c0-1.24-0.04-1.11,1.09-1.11
	c2.35-0.01,4.69-0.01,7.04-0.01c0.24,0,0.48,0.01,0.72,0.02c0.21,0.01,0.29,0.14,0.3,0.33c0.01,0.31,0.01,0.61,0.01,0.92v14
	c0,1.42-0.12,1.27,1.24,1.27c4.16,0.01,8.31,0.01,12.46,0.01c0.24,0,0.48,0,0.72-0.01c0.38-0.02,0.45-0.09,0.47-0.49
	c0.01-0.24,0-0.48,0-0.72V13.17c0-1.38,0.17-1.23-1.27-1.24c-1.5-0.01-3-0.02-4.5-0.04c-0.17,0-0.34,0.01-0.51,0
	c-0.42-0.02-0.48-0.07-0.49-0.46c-0.01-0.45,0.02-0.89-0.01-1.33V9c0-0.02,0-0.05-0.01-0.07c-0.02-0.15-0.14-0.27-0.29-0.29
	c-0.02-0.01-0.05-0.01-0.07-0.01H62.3c-0.85-0.02-1.7-0.01-2.55,0h-0.26c-0.03,0-0.06,0-0.08,0.02c-0.03-0.01-0.06,0.01-0.09,0.02
	c-0.04,0.02-0.08,0.04-0.09,0.07c-0.03,0.02-0.05,0.06-0.06,0.09c-0.03,0.03-0.04,0.06-0.03,0.1C59.12,8.95,59.12,8.98,59.12,9v2.02
	c0,0.89,0.03,0.88-0.92,0.88c-1.84,0-3.68,0-5.51,0.01c-5.24,0-10.49,0.01-15.73,0.03c-1.97,0-3.54-0.85-4.85-2.24
	c-0.8-0.84-1.2-1.89-1.28-3.05c-0.06-0.92-0.01-1.84,0.26-2.73c0.1-0.35,0.2-0.42,0.58-0.43c0.24-0.01,0.48-0.01,0.72-0.01h38.19
	c0.61,0,1.21,0.02,1.82,0.15c2.48,0.57,4.17,2.8,4.22,5.13C76.63,9,76.63,9.24,76.63,9.48z"/>
<polygon class="st0" points="87.51,40.24 86.27,40.24 86.27,37.05 87.54,37.05 "/>
<polygon class="st0" points="90.79,39.04 91.56,40.24 92.93,40.24 91.79,38.52 "/>
<path class="st1" d="M142.44,32.72c-0.01,0.02-0.01,0.05-0.01,0.08c0,0.65,0,1.3,0.01,1.94v0.37h0.39c0.23,0,0.47,0.01,0.71,0.01
	c0.75,0,1.5-0.01,2.25,0c0.08,0,0.13,0.01,0.2,0.01v1.03h-3.55v0.36c-0.01,0.04-0.01,0.09-0.01,0.14c-0.01,0.64-0.01,1.29,0,1.94
	c0,0.05,0,0.1,0.01,0.14v0.35h1.17c0.92,0,1.84,0,2.76,0.01c0.12,0,0.21,0.01,0.3,0.02v1.1l-0.01,0.01h-5
	c-0.37-0.01-0.45-0.1-0.47-0.51c-0.01-0.2,0-0.41,0-0.61v-3.37c0-1.09-0.01-2.18,0-3.27c0-0.24-0.01-0.48,0-0.71
	c0.02-0.34,0.11-0.43,0.42-0.45c0.1-0.01,0.2-0.01,0.3-0.01c1.47,0,2.93,0.01,4.39,0c0.16,0,0.28,0,0.37,0.02v1.08
	c-0.3,0.01-0.6,0.01-0.9,0.02h-3.33V32.72z"/>
<rect x="141.18" y="31.3" class="st0" width="1.26" height="8.92"/>
<path class="st1" d="M198.97,32.72c-0.01,0.02-0.01,0.05-0.01,0.08c0,0.65,0,1.3,0.01,1.94v0.37h0.39c0.23,0,0.47,0.01,0.71,0.01
	c0.75,0,1.5-0.01,2.25,0c0.08,0,0.13,0.01,0.2,0.01v1.03h-3.55v0.36c-0.01,0.04-0.01,0.09-0.01,0.14c-0.01,0.64-0.01,1.29,0,1.94
	c0,0.05,0,0.1,0.01,0.14v0.35h1.17c0.92,0,1.84,0,2.76,0.01c0.12,0,0.21,0.01,0.3,0.02v1.1l-0.01,0.01h-5
	c-0.37-0.01-0.45-0.1-0.47-0.51c-0.01-0.2,0-0.41,0-0.61v-3.37c0-1.09-0.01-2.18,0-3.27c0-0.24-0.01-0.48,0-0.71
	c0.02-0.34,0.11-0.43,0.42-0.45c0.1-0.01,0.2-0.01,0.3-0.01c1.47,0,2.93,0.01,4.39,0c0.16,0,0.28,0,0.37,0.02v1.08
	c-0.3,0.01-0.6,0.01-0.9,0.02h-3.33V32.72z"/>
<rect x="197.71" y="31.3" class="st0" width="1.26" height="8.92"/>
<path class="st1" d="M99.67,32.72c-0.01,0.02-0.01,0.05-0.01,0.08c0,0.65,0,1.3,0.01,1.94v0.37h0.39c0.23,0,0.47,0.01,0.71,0.01
	c0.75,0,1.5-0.01,2.25,0c0.08,0,0.13,0.01,0.2,0.01v1.03h-3.55v0.36c-0.01,0.04-0.01,0.09-0.01,0.14c-0.01,0.64-0.01,1.29,0,1.94
	c0,0.05,0,0.1,0.01,0.14v0.35h1.17c0.92,0,1.84,0,2.76,0.01c0.12,0,0.21,0.01,0.3,0.02v1.1l-0.01,0.01h-5
	c-0.37-0.01-0.45-0.1-0.47-0.51c-0.01-0.2,0-0.41,0-0.61v-3.37c0-1.09-0.01-2.18,0-3.27c0-0.24-0.01-0.48,0-0.71
	c0.02-0.34,0.11-0.43,0.42-0.45c0.1-0.01,0.2-0.01,0.3-0.01c1.47,0,2.93,0.01,4.39,0c0.16,0,0.28,0,0.37,0.02v1.08
	c-0.3,0.01-0.6,0.01-0.9,0.02h-3.33V32.72z"/>
<rect x="98.41" y="31.3" class="st0" width="1.26" height="8.92"/>
<rect x="122.59" y="31.31" class="st0" width="1.28" height="8.93"/>
<rect x="124.8" y="36.67" transform="matrix(-1.836970e-16 1 -1 -1.836970e-16 164.9963 -85.9243)" class="st0" width="1.33" height="5.74"/>
<polygon class="st2" points="170.28,31.31 170.28,32.4 167.51,32.4 167.51,40.18 166.26,40.18 166.26,32.4 163.49,32.4 
	163.49,31.31 "/>
<polygon class="st2" points="192.25,31.31 192.25,32.4 189.48,32.4 189.48,40.18 188.23,40.18 188.23,32.4 185.46,32.4 
	185.46,31.31 "/>
<rect x="166.25" y="32.49" class="st1" width="0.01" height="7.69"/>
<rect x="166.25" y="32.49" class="st2" width="0.01" height="7.69"/>
<path class="st2" d="M117.05,39.91l-0.02-0.08l-0.38-1.04c-0.82-2.25-1.65-4.48-2.47-6.73c-0.01-0.03-0.02-0.06-0.03-0.08
	l-0.25-0.68h-1.13l-0.47,1.29c-0.61,1.64-1.21,3.27-1.82,4.9c-0.16,0.43-0.31,0.86-0.48,1.31l-0.52,1.38h1.13h0.11l0.12-0.33
	l0.07-0.19l0.27-0.73h-0.02c0.08-0.21,0.15-0.41,0.22-0.62c0.1-0.28,0.25-0.46,0.59-0.45c0.88,0.01,1.77,0.01,2.65,0
	c0.32-0.01,0.5,0.12,0.6,0.43c0.07,0.21,0.14,0.43,0.22,0.64l0.39,1.07l0.06,0.18h1.27L117.05,39.91z M111.97,36.76l1.37-3.81
	l1.31,3.81H111.97z"/>
<path class="st2" d="M181.5,39.91l-0.02-0.08l-0.38-1.04c-0.82-2.25-1.65-4.48-2.47-6.73c-0.01-0.03-0.02-0.06-0.03-0.08l-0.25-0.68
	h-1.13l-0.47,1.29c-0.61,1.64-1.21,3.27-1.82,4.9c-0.16,0.43-0.31,0.86-0.48,1.31l-0.52,1.38h1.13h0.11l0.12-0.33l0.07-0.19
	l0.27-0.73h-0.02c0.08-0.21,0.15-0.41,0.22-0.62c0.1-0.28,0.25-0.46,0.59-0.45c0.88,0.01,1.77,0.01,2.65,0
	c0.32-0.01,0.5,0.12,0.6,0.43c0.07,0.21,0.14,0.43,0.22,0.64l0.39,1.07l0.06,0.18h1.27L181.5,39.91z M176.42,36.76l1.37-3.81
	l1.31,3.81H176.42z"/>
</svg>
